<?xml version="1.0" encoding="UTF-8" standalone="no"?>
<!-- Created with Inkscape (http://www.inkscape.org/) -->

<svg
   xmlns:dc="http://purl.org/dc/elements/1.1/"
   xmlns:cc="http://creativecommons.org/ns#"
   xmlns:rdf="http://www.w3.org/1999/02/22-rdf-syntax-ns#"
   xmlns:svg="http://www.w3.org/2000/svg"
   xmlns="http://www.w3.org/2000/svg"
   xmlns:sodipodi="http://sodipodi.sourceforge.net/DTD/sodipodi-0.dtd"
   xmlns:inkscape="http://www.inkscape.org/namespaces/inkscape"
   width="210mm"
   height="297mm"
   viewBox="0 0 744.09448819 1052.3622047"
   id="svg2"
   version="1.1"
   inkscape:version="0.91 r13725"
   sodipodi:docname="events.svg">
  <defs
     id="defs4" />
  <sodipodi:namedview
     id="base"
     pagecolor="#ffffff"
     bordercolor="#666666"
     borderopacity="1.0"
     inkscape:pageopacity="0.0"
     inkscape:pageshadow="2"
     inkscape:zoom="1.4"
     inkscape:cx="162.87653"
     inkscape:cy="647.94184"
     inkscape:document-units="px"
     inkscape:current-layer="layer1"
     showgrid="false"
     inkscape:window-width="1918"
     inkscape:window-height="1021"
     inkscape:window-x="0"
     inkscape:window-y="0"
     inkscape:window-maximized="0"
     showguides="true"
     inkscape:guide-bbox="true" />
  <metadata
     id="metadata7">
    <rdf:RDF>
      <cc:Work
         rdf:about="">
        <dc:format>image/svg+xml</dc:format>
        <dc:type
           rdf:resource="http://purl.org/dc/dcmitype/StillImage" />
        <dc:title></dc:title>
      </cc:Work>
    </rdf:RDF>
  </metadata>
  <g
     inkscape:label="Ebene 1"
     inkscape:groupmode="layer"
     id="layer1">
    <ellipse
       style="fill:none;fill-rule:evenodd;stroke:#84ffe4;stroke-width:14;stroke-linecap:butt;stroke-linejoin:miter;stroke-miterlimit:4;stroke-dasharray:none;stroke-opacity:1;image-rendering:optimizeQuality"
       id="path3336"
       cx="305.84555"
       cy="312.03662"
       rx="187.14285"
       ry="187.85715" />
    <path
       style="fill:none;fill-rule:evenodd;stroke:#000000;stroke-width:0;stroke-linecap:butt;stroke-linejoin:miter;stroke-opacity:1;stroke-miterlimit:4;stroke-dasharray:none"
       d="m 167.68532,409.90519 c 4.20897,0 8.41794,0 12.62691,0 1.85195,0 3.70709,-0.10875 5.55584,0 2.02381,0.11904 4.03641,0.39852 6.06091,0.50507 1.17689,0.0619 2.36002,-0.084 3.53554,0 1.18745,0.0848 2.34769,0.42589 3.53553,0.50508 10.73958,0 -2.16159,-0.19048 7.57615,0.50507 1.17551,0.084 2.36886,-0.16666 3.53553,0 1.21335,0.17334 2.32218,0.83682 3.53553,1.01016 1.16667,0.16666 2.35703,0 3.53554,0 1.01015,0 2.0203,0 3.03046,0 1.17851,0 2.35963,-0.0784 3.53553,0 1.35434,0.0903 2.68626,0.41478 4.04061,0.50507 1.1759,0.0784 2.36002,-0.084 3.53553,0 1.18745,0.0848 2.34809,0.42026 3.53554,0.50508 1.17551,0.084 2.35702,0 3.53553,0 0.84179,0 1.69504,-0.13839 2.52538,0 1.209,0.2015 2.32412,0.82378 3.53554,1.01015 0.9984,0.1536 2.02328,-0.0775 3.03045,0 1.18697,0.0913 2.34857,0.41377 3.53554,0.50508 1.00717,0.0775 2.02328,-0.0775 3.03046,0 1.18696,0.0913 2.3464,0.44845 3.53553,0.50507 2.35435,0.11212 4.71404,0 7.07107,0 2.52538,0 5.05076,0 7.57614,0 10.26989,0 20.53977,0 30.80965,0 10.10153,0 20.20305,0 30.30458,0 3.87225,0 7.7445,0 11.61675,0 1.68359,0 3.37409,-0.15242 5.05077,0 0.85494,0.0777 1.67216,0.41028 2.52538,0.50508 0.66931,0.0744 1.34687,0 2.0203,0 1.34687,0 2.69374,0 4.04061,0 3.53554,0 7.07107,0 10.60661,0 0.67343,0 1.3629,-0.14609 2.0203,0 6.63728,1.47495 -1.93946,0.7657 5.55584,1.51523 0.67009,0.067 1.35099,-0.0744 2.0203,0 0.85322,0.0948 1.68359,0.33672 2.52539,0.50508 1.01015,0.16835 2.01145,0.40317 3.03045,0.50507 1.67524,0.16753 3.37409,-0.15242 5.05077,0 0.85494,0.0777 1.67354,0.3986 2.52538,0.50508 0.50117,0.0627 1.01015,0 1.51523,0 1.34687,0 2.69374,0 4.04061,0 3.19881,0 6.39763,0 9.59645,0 1.51522,0 3.03045,0 4.54568,0 0.67344,0 1.34687,0 2.02031,0 0.16836,0 0.50507,0.16836 0.50507,0 0,-1.0775 -0.84179,-1.11117 -1.51523,-1.51523 -4.33262,-2.59957 2.698,0.9931 -5.05076,-2.02031 -1.89596,-0.73732 -3.63346,-1.85994 -5.55584,-2.52538 -6.11602,-2.11708 -11.17938,-2.6494 -17.67767,-3.53553 -13.33787,-1.8188 -11.76254,-1.50747 -25.75889,-2.52538 -18.50769,-1.34602 -9.75172,-1.01015 -28.28427,-1.01015 -22.22335,0 -44.44671,0 -66.67007,0 -6.73435,0 -13.4687,0 -20.20305,0 -2.69374,0 -5.39272,0.16803 -8.08122,0 -2.70941,-0.16934 -5.3718,-0.84082 -8.08122,-1.01016 -2.68849,-0.16803 -5.38748,0 -8.08122,0 -2.0203,0 -4.04061,0 -6.06091,0 -4.04061,0 -8.08122,0 -12.12183,0 -1.34687,0 -2.69374,0 -4.04061,0 -1.01016,0 -2.04436,0.21914 -3.03046,0 -0.59257,-0.13168 -0.95162,-0.78471 -1.51523,-1.01015 -0.31263,-0.12505 -0.67344,0 -1.01015,0 -0.33672,0 -0.67344,0 -1.01016,0 -1.17851,0 -2.35702,0 -3.53553,0 -3.03046,0 -6.06091,0 -9.09137,0 -0.50508,0 -1.01015,0 -1.51523,0 -0.16836,0 -0.50508,-0.16836 -0.50508,0 0,0.2381 0.29212,0.3986 0.50508,0.50508 0.47619,0.23809 1.01015,0.33671 1.51523,0.50507 2.94888,0.98296 0.10117,0.12125 4.54568,1.01016 0.047,0.009 4.02573,1.0088 4.04061,1.01015 1.17368,0.1067 2.36002,-0.084 3.53554,0 1.18745,0.0848 2.34808,0.42026 3.53553,0.50507 1.17552,0.084 2.35703,0 3.53554,0 1.51523,0 3.03045,0 4.54568,0 1.68359,0 3.37476,-0.15962 5.05077,0 1.87382,0.17846 3.6806,0.84709 5.55583,1.01016 2.01271,0.17501 4.04061,0 6.06092,0 2.69374,0 5.38908,-0.0928 8.08122,0 7.07488,0.24396 14.13747,0.79243 21.2132,1.01015 3.87042,0.11909 7.74546,-0.086 11.61676,0 3.7068,0.0824 7.40496,0.41887 11.11168,0.50508 3.53457,0.0822 7.07106,0 10.6066,0 3.36717,0 6.73835,-0.16406 10.10152,0 26.27087,1.2815 -3.27229,1.01015 19.1929,1.01015 12.45855,0 24.9171,0 37.37565,0 4.04061,0 8.08122,0 12.12183,0 1.68358,0 3.36717,0 5.05076,0 0.67343,0 1.35207,-0.0835 2.0203,0 1.37761,0.1722 2.68535,0.70898 4.04061,1.01015 0.83803,0.18623 1.70313,0.2584 2.52539,0.50508 0.8684,0.26052 1.65068,0.7716 2.52538,1.01015 0.988,0.26945 2.0203,0.33672 3.03045,0.50508 1.01016,0.16835 2.02031,0.33671 3.03046,0.50507 1.01015,0.16836 2.05166,0.20391 3.03046,0.50508 1.22548,0.37707 2.30269,1.16298 3.53553,1.51523 0.57249,0.16357 7.26471,0.96566 7.57615,1.01015 1.01379,0.14483 2.00814,0.44494 3.03046,0.50508 1.84875,0.10875 3.70389,0 5.55583,0 1.51523,0 3.03046,0 4.54569,0"
       id="path4521"
       inkscape:connector-curvature="0" />
    <path
       style="fill:none;fill-rule:evenodd;stroke:#84ffe4;stroke-width:0.51456964;stroke-linecap:butt;stroke-linejoin:miter;stroke-miterlimit:4;stroke-dasharray:none;stroke-opacity:1"
       d="m 258.48845,166.13259 c 0,0 0.78567,4.55654 6.37269,4.47057 5.58701,-0.086 6.1981,-4.3846 6.1981,-4.3846"
       id="path4277"
       inkscape:connector-curvature="0" />
    <path
       style="fill:none;fill-rule:evenodd;stroke:#84ffe4;stroke-width:0.51456964;stroke-linecap:butt;stroke-linejoin:miter;stroke-miterlimit:4;stroke-dasharray:none;stroke-opacity:1"
       d="m 258.65952,166.39051 -4.62674,0 c 0,0 -1.30946,-0.51584 -2.35703,1.28958 -1.04756,1.80542 -0.26189,23.81438 -0.26189,23.81438 0,0 -0.34919,1.63348 1.57135,1.63348 1.92054,0 2.61891,0 2.61891,-1.20362 0,-1.20361 0.0873,-17.19449 0.0873,-17.19449"
       id="path4285"
       inkscape:connector-curvature="0" />
    <path
       style="fill:none;fill-rule:evenodd;stroke:#84ffe4;stroke-width:0.51456964;stroke-linecap:butt;stroke-linejoin:miter;stroke-miterlimit:4;stroke-dasharray:none;stroke-opacity:1"
       d="m 270.83447,166.2954 4.62674,0 c 0,0 1.30946,-0.51584 2.35703,1.28958 1.04756,1.80543 0.26189,23.81438 0.26189,23.81438 0,0 0.34918,1.63348 -1.57135,1.63348 -1.92054,0 -2.61892,0 -2.61892,-1.20361 0,-1.20361 -0.0873,-17.1945 -0.0873,-17.1945"
       id="path4285-7"
       inkscape:connector-curvature="0" />
    <path
       style="fill:none;fill-rule:evenodd;stroke:#84ffe4;stroke-width:0.51456964;stroke-linecap:butt;stroke-linejoin:miter;stroke-miterlimit:4;stroke-dasharray:none;stroke-opacity:1"
       d="m 255.77872,174.89832 1.57135,-0.086 0.0873,20.37548"
       id="path4302"
       inkscape:connector-curvature="0" />
    <path
       style="fill:none;fill-rule:evenodd;stroke:#84ffe4;stroke-width:0.51456964;stroke-linecap:butt;stroke-linejoin:miter;stroke-miterlimit:4;stroke-dasharray:none;stroke-opacity:1"
       d="m 273.93154,174.9072 -1.57135,-0.086 -0.0873,20.37547"
       id="path4302-0"
       inkscape:connector-curvature="0" />
    <path
       style="fill:none;fill-rule:evenodd;stroke:#84ffe4;stroke-width:0.51456964;stroke-linecap:butt;stroke-linejoin:miter;stroke-miterlimit:4;stroke-dasharray:none;stroke-opacity:1"
       d="m 257.35358,195.01934 14.84052,-0.086"
       id="path4319"
       inkscape:connector-curvature="0" />
    <path
       style="fill:#84ffe4;fill-opacity:1;stroke:#84ffe4;stroke-width:0.2598969;stroke-miterlimit:4;stroke-dasharray:none;stroke-opacity:1"
       d="m 257.71213,188.21319 c 10e-6,-3.57408 -0.0258,-8.11987 -0.0573,-10.10177 l -0.0574,-3.60344 -0.8374,0.053 c -0.46057,0.0292 -0.96507,0.0824 -1.12112,0.11821 l -0.28372,0.0652 -0.01,7.74827 c -0.005,4.26155 -0.0349,8.24722 -0.0655,8.85704 -0.0733,1.46431 -0.0503,1.44451 -1.69894,1.4596 -1.06964,0.01 -1.20295,-0.006 -1.42687,-0.16887 -0.13585,-0.0988 -0.2912,-0.27292 -0.34523,-0.38688 -0.23242,-0.49019 -0.46813,-16.11473 -0.30412,-20.15957 0.14171,-3.49517 0.25683,-4.15383 0.84665,-4.84415 0.48374,-0.56617 0.57889,-0.58126 3.40827,-0.54037 l 2.54311,0.0368 0.39779,0.78913 c 1.12094,2.22377 3.14978,3.33322 6.07922,3.32437 2.99515,-0.009 5.07694,-1.14881 6.15871,-3.37184 0.16771,-0.34464 0.30493,-0.69704 0.30493,-0.7831 0,-0.14843 0.13478,-0.1552 2.61096,-0.1314 l 2.61097,0.0251 0.33532,0.2661 c 0.60868,0.48305 0.81641,0.86732 0.95197,1.761 0.32945,2.17193 0.38231,10.84337 0.12154,19.93887 -0.0881,3.07291 -0.11773,3.50713 -0.25227,3.69681 -0.28029,0.39517 -0.56766,0.47183 -1.70909,0.45587 -1.1379,-0.0159 -1.46233,-0.0908 -1.6156,-0.37283 -0.0715,-0.13154 -0.11601,-2.65578 -0.15808,-8.96273 l -0.0586,-8.77962 -1.01778,-0.034 -1.01778,-0.034 -0.0298,10.01719 c -0.0164,5.50945 -0.0494,10.03593 -0.0734,10.05884 -0.024,0.0229 -3.23546,0.0552 -7.13655,0.0716 l -7.0929,0.03 0,-6.49831 z"
       id="path4379"
       inkscape:connector-curvature="0" />
    <path
       style="fill:#84ffe4;fill-opacity:1;stroke:#84ffe4;stroke-width:0.24574476;stroke-miterlimit:4;stroke-dasharray:none;stroke-opacity:1"
       d="m 263.2677,166.14323 c -1.79793,-0.41968 -3.53127,-1.60456 -4.64193,-3.17315 -0.50772,-0.71704 -1.09759,-2.06451 -1.30572,-2.98268 -0.21721,-0.95826 -0.23685,-2.56869 -0.0427,-3.49824 0.67874,-3.24889 3.02485,-5.67049 6.18829,-6.38737 0.2632,-0.0596 0.95205,-0.10429 1.54425,-0.10008 0.87358,0.006 1.20841,0.0468 1.83084,0.22168 3.02004,0.84872 5.20654,3.33291 5.77767,6.56433 0.14053,0.79514 0.0527,2.70342 -0.16073,3.49122 -0.37748,1.39345 -1.01066,2.53716 -1.97749,3.57192 -0.9888,1.05827 -2.19229,1.8086 -3.53008,2.20085 -0.90738,0.26605 -2.73964,0.31159 -3.68244,0.0915 z"
       id="path4381"
       inkscape:connector-curvature="0" />
    <ellipse
       style="fill:none;stroke:#84ffe4;stroke-width:1.48552227;stroke-miterlimit:4;stroke-dasharray:none;stroke-opacity:1"
       id="path4261-8"
       cx="215.52235"
       cy="291.74167"
       rx="25.753279"
       ry="24.774071" />
    <path
       style="fill:none;fill-rule:evenodd;stroke:#84ffe4;stroke-width:1.48552227;stroke-linecap:butt;stroke-linejoin:miter;stroke-miterlimit:4;stroke-dasharray:none;stroke-opacity:1"
       d="m 195.32332,315.30108 c 0,0 4.04012,11.86757 20.19904,11.61983 16.15892,-0.24774 17.9263,-12.63477 17.9263,-12.63477"
       id="path4277-0"
       inkscape:connector-curvature="0"
       sodipodi:nodetypes="csc" />
    <path
       style="fill:none;fill-rule:evenodd;stroke:#84ffe4;stroke-width:1.48552227;stroke-linecap:butt;stroke-linejoin:miter;stroke-miterlimit:4;stroke-dasharray:none;stroke-opacity:1"
       d="m 193.79966,340.30813 -10e-4,-1.25789 0.25249,58.71455"
       id="path4302-9"
       inkscape:connector-curvature="0"
       sodipodi:nodetypes="ccc" />
    <path
       style="fill:none;fill-rule:evenodd;stroke:#84ffe4;stroke-width:1.48552227;stroke-linecap:butt;stroke-linejoin:miter;stroke-miterlimit:4;stroke-dasharray:none;stroke-opacity:1"
       d="m 236.70523,339.57611 0.50607,-0.50028 -0.25249,58.71455"
       id="path4302-0-0"
       inkscape:connector-curvature="0"
       sodipodi:nodetypes="ccc" />
    <path
       style="fill:none;fill-rule:evenodd;stroke:#84ffe4;stroke-width:1.48552227;stroke-linecap:butt;stroke-linejoin:miter;stroke-miterlimit:4;stroke-dasharray:none;stroke-opacity:1"
       d="m 193.80881,397.27927 42.92213,-0.24774"
       id="path4319-0"
       inkscape:connector-curvature="0" />
    <path
       style="fill:#84ffe4;fill-opacity:1;stroke:#84ffe4;stroke-width:0.75018871;stroke-miterlimit:4;stroke-dasharray:none;stroke-opacity:1"
       d="m 210.24731,315.11405 c -5.7322,-1.2267 -11.25847,-4.69006 -14.79953,-9.27501 -1.6187,-2.09587 -3.49935,-6.03447 -4.1629,-8.71826 -0.69253,-2.80097 -0.75514,-7.50819 -0.13601,-10.22522 2.16396,-9.49641 9.6439,-16.57465 19.72965,-18.67008 0.83913,-0.17434 3.03537,-0.30482 4.92342,-0.29251 2.78515,0.0181 3.85269,0.13667 5.83713,0.64795 9.62857,2.48078 16.5996,9.74198 18.4205,19.18729 0.44806,2.32418 0.16798,7.902 -0.51243,10.20472 -1.20349,4.073 -3.22222,7.41604 -6.30467,10.4406 -3.15252,3.09329 -6.9895,5.28646 -11.25469,6.43301 -2.89293,0.77767 -8.7346,0.91077 -11.74047,0.26751 z"
       id="path4381-4"
       inkscape:connector-curvature="0" />
    <path
       style="fill:none;fill-rule:evenodd;stroke:#84ffe4;stroke-width:1.48599994;stroke-linecap:butt;stroke-linejoin:miter;stroke-miterlimit:4;stroke-dasharray:none;stroke-opacity:1"
       d="m 194.49057,346.29587 -36.47933,-56.71392 c 0,0 -3.45832,-4.33809 -1.33536,-8.69989 0.54292,-1.11548 1.18359,-2.4253 2.78374,-3.58904"
       id="path4691"
       inkscape:connector-curvature="0"
       sodipodi:nodetypes="ccsc" />
    <path
       style="fill:none;fill-rule:evenodd;stroke:#84ffe4;stroke-width:1.48599994;stroke-linecap:butt;stroke-linejoin:miter;stroke-miterlimit:4;stroke-dasharray:none;stroke-opacity:1"
       d="M 196.03427,316.60226 170.23705,278.9797 c 0,0 -2.77607,-4.01523 -8.36409,-2.16639 -5.68379,1.88053 -3.23223,1.25713 -3.23223,1.25713"
       id="path4695"
       inkscape:connector-curvature="0"
       sodipodi:nodetypes="ccsc" />
    <path
       style="fill:none;fill-rule:evenodd;stroke:#84ffe4;stroke-width:1.48599994;stroke-linecap:butt;stroke-linejoin:miter;stroke-miterlimit:4;stroke-dasharray:none;stroke-opacity:1"
       d="m 234.61434,344.99068 36.47933,-56.71392 c 0,0 3.45832,-4.33809 1.33536,-8.69989 -0.54292,-1.11548 -1.18359,-2.4253 -2.78374,-3.58904"
       id="path4691-7"
       inkscape:connector-curvature="0"
       sodipodi:nodetypes="ccsc" />
    <path
       style="fill:none;fill-rule:evenodd;stroke:#84ffe4;stroke-width:1.48599994;stroke-linecap:butt;stroke-linejoin:miter;stroke-miterlimit:4;stroke-dasharray:none;stroke-opacity:1"
       d="m 233.07064,315.29707 25.79722,-37.62256 c 0,0 2.77607,-4.01523 8.36409,-2.16639 5.68379,1.88053 3.23223,1.25713 3.23223,1.25713"
       id="path4695-2"
       inkscape:connector-curvature="0"
       sodipodi:nodetypes="ccsc" />
    <path
       style="fill:#84ffe4;fill-opacity:1;stroke:#84ffe4;stroke-width:0.7505433;stroke-miterlimit:4;stroke-dasharray:none;stroke-opacity:1"
       d="m 194.78205,367.73646 c 0.0159,-15.73011 -0.0844,-28.71339 -0.22271,-28.85175 -0.63244,-0.63244 -1.81034,0.47593 -1.81034,1.70348 0,0.97515 -4.91539,-6.28405 -17.47274,-25.80424 -9.61001,-14.9386 -17.70596,-27.8301 -17.991,-28.64777 -1.28309,-3.68068 0.55235,-7.09299 4.48142,-8.33152 2.46764,-0.77785 2.97429,-0.79196 4.8726,-0.13572 1.98474,0.68613 2.7006,1.57805 11.33036,14.11693 5.06647,7.36148 11.59086,16.9319 14.49865,21.26758 2.90779,4.33568 6.09874,8.59587 7.09099,9.46708 3.87834,3.40522 9.06487,5.12575 15.45155,5.12575 9.11479,0 14.74512,-3.17328 18.4227,-10.38313 2.42729,-4.75866 26.03536,-39.24327 27.63093,-40.36085 2.48554,-1.74094 8.39622,-0.5445 9.98144,2.02044 1.12109,1.81396 1.3242,5.25104 0.41139,6.96169 -2.42846,4.55104 -32.66758,50.8502 -33.8147,51.77372 -0.80137,0.64516 -1.45703,1.64112 -1.45703,2.21322 0,0.57211 -0.48339,1.82234 -1.0742,2.77829 -0.81936,1.32576 -0.93419,1.87808 -0.48404,2.32823 0.45015,0.45016 0.70314,0.41143 1.06646,-0.16324 0.30199,-0.47766 0.47914,8.81257 0.48404,25.38431 l 0.008,26.1377 -20.71618,0 -20.71618,0 0.0289,-28.6002 z"
       id="path4733"
       inkscape:connector-curvature="0" />
    <path
       style="fill:#84ffe4;fill-opacity:1;stroke:#84ffe4;stroke-width:0.18763582;stroke-miterlimit:4;stroke-dasharray:none;stroke-opacity:1"
       d="m 192.21412,341.32761 c -0.83536,-1.29857 -0.95207,-1.63678 -0.27338,-0.79224 0.34702,0.43182 0.4754,0.50828 0.77871,0.46376 l 0.36318,-0.0533 0,0.79888 c 0,0.43938 -0.0194,0.79888 -0.0431,0.79888 -0.0237,0 -0.39514,-0.54719 -0.82537,-1.21598 z"
       id="path4735"
       inkscape:connector-curvature="0" />
    <path
       style="fill:#84ffe4;fill-opacity:1;stroke:#84ffe4;stroke-width:0.18763582;stroke-miterlimit:4;stroke-dasharray:none;stroke-opacity:1"
       d="m 193.84025,397.84944 c 0,-0.0695 -0.11365,-0.12627 -0.25254,-0.12627 -0.24844,0 -0.25266,-0.0866 -0.25982,-5.33487 -0.004,-2.93418 -0.0532,-14.69142 -0.10923,-26.12722 l -0.10195,-20.79235 -17.52654,-27.25303 c -9.63959,-14.98916 -17.80588,-27.66953 -18.14731,-28.17859 -0.85889,-1.28055 -1.55874,-2.79269 -1.87638,-4.0542 -0.21911,-0.87019 -0.25779,-1.32139 -0.21109,-2.46225 0.0629,-1.53673 0.32217,-2.3743 1.20774,-3.90159 0.24818,-0.42802 0.58525,-1.03392 0.74905,-1.34644 0.32166,-0.61368 1.54557,-1.55805 1.86192,-1.43665 0.0965,0.037 0.8758,-0.1604 1.73184,-0.43871 1.99838,-0.64969 3.05049,-0.82899 4.32647,-0.73731 1.88539,0.13548 3.5708,0.88106 4.86278,2.15116 0.37681,0.37043 5.44236,7.64327 12.84022,18.43529 6.71984,9.80293 12.48904,18.19854 12.82045,18.65692 0.3314,0.45839 0.71529,1.09645 0.85309,1.41793 0.90365,2.10812 3.51058,4.94454 6.05379,6.58669 3.74436,2.41775 9.0587,3.6311 14.17696,3.23685 4.95919,-0.382 8.31522,-1.60774 11.24322,-4.10639 2.22604,-1.89963 4.30993,-5.32886 4.51323,-7.42693 0.005,-0.0494 0.11278,-0.19144 0.24,-0.31568 0.12721,-0.12424 5.87356,-8.46494 12.76966,-18.5349 6.8961,-10.06996 12.74962,-18.56471 13.00782,-18.87723 0.6643,-0.80406 2.16157,-1.78498 3.28564,-2.15256 0.82311,-0.26917 1.17006,-0.30862 2.65165,-0.30158 1.6865,0.008 1.72379,0.0145 3.50448,0.60692 0.98991,0.32934 1.8495,0.56812 1.91019,0.53061 0.17304,-0.10695 1.6564,0.82679 1.6564,1.04266 0,0.10627 0.22412,0.5381 0.49805,0.95963 1.15603,1.77896 1.64853,3.29239 1.64853,5.0659 0,1.36983 -0.31982,2.75458 -0.93175,4.03427 -0.23247,0.48614 -8.12701,12.85765 -17.54343,27.49224 -9.41642,14.6346 -17.17684,26.71315 -17.24539,26.84122 -0.0797,0.14897 -0.17439,10.39613 -0.26274,28.43868 -0.076,15.51319 -0.15183,28.21952 -0.16861,28.23629 -0.031,0.031 -37.07715,0.29722 -41.40886,0.29757 -1.49431,1.2e-4 -2.36754,-0.0464 -2.36754,-0.12608 z m 42.65094,-52.62263 -0.0351,-1.7362 -0.29982,0.42036 c -0.25908,0.36325 -0.2795,0.46497 -0.15029,0.74856 0.0822,0.18051 0.20109,1.38346 0.2641,2.67323 0.063,1.28977 0.1289,2.51549 0.14642,2.72384 0.0549,0.6529 0.11155,-3.00956 0.0747,-4.82979 z m 0.0172,-4.70353 c -0.005,-0.12489 -0.0439,-0.10338 -0.11546,0.0631 -0.14916,0.34712 -0.14916,0.54649 0,0.31567 0.0673,-0.10417 0.11928,-0.27464 0.11546,-0.37881 z m -45.23022,-0.92681 c -0.16603,-0.21946 -0.51513,-0.69732 -0.77578,-1.06193 -0.61287,-0.85731 -0.70637,-0.85384 -0.15646,0.006 0.89766,1.40327 1.03011,1.58123 1.13063,1.5191 0.0569,-0.0352 -0.0324,-0.24352 -0.19839,-0.46298 z m 48.61606,-4.12395 c 2.11408,-3.28302 1.95783,-3.03046 1.87482,-3.03046 -0.0376,0 -0.5747,0.75288 -1.19356,1.67307 -0.61887,0.92018 -1.47219,2.15585 -1.89627,2.74592 -0.42408,0.59008 -0.77106,1.18386 -0.77106,1.31952 0,0.36333 0.0678,0.27093 1.98607,-2.70805 z m -5.12349,-21.11329 c 0.99697,-1.60353 1.06075,-1.71387 0.89706,-1.55201 -0.23724,0.2346 -1.80025,2.59478 -1.80025,2.71842 0,0.24867 0.11872,0.0953 0.90319,-1.16641 z m -76.66463,-26.11134 c -0.0743,-0.1389 -0.16357,-0.25254 -0.19829,-0.25254 -0.0347,0 -0.002,0.11364 0.072,0.25254 0.0743,0.13889 0.16357,0.25254 0.19829,0.25254 0.0347,0 0.002,-0.11365 -0.072,-0.25254 z m 114.23349,-6.58967 c -0.0403,-0.10073 -0.0702,-0.0708 -0.0763,0.0763 -0.005,0.13311 0.0244,0.20768 0.0663,0.16573 0.0419,-0.042 0.0464,-0.15087 0.01,-0.24202 l 0,0 z m -102.82851,-2.42789 c -0.19604,-0.23719 -0.5269,-0.55908 -0.73524,-0.71531 -0.20835,-0.15623 -0.0682,0.0378 0.31136,0.43126 0.77949,0.80789 0.95283,0.92406 0.42388,0.28405 z m -10.07104,-0.80227 c -0.0847,-0.0847 -0.5759,0.29284 -0.80322,0.61739 -0.15403,0.21992 -0.0742,0.18679 0.3272,-0.13579 0.29202,-0.23467 0.50623,-0.45139 0.47602,-0.4816 z m 100.19582,-0.3764 c 0.29966,-0.39933 0.44375,-0.64408 0.32019,-0.54391 -0.23208,0.18816 -1.01498,1.26996 -0.91907,1.26996 0.0297,0 0.29921,-0.32672 0.59888,-0.72605 z m 10.53404,-0.66291 c -0.1257,-0.1389 -0.29077,-0.25128 -0.36681,-0.24973 -0.0761,0.002 0.004,0.11392 0.1774,0.24973 0.40672,0.31814 0.47732,0.31814 0.18941,0 z"
       id="path4737"
       inkscape:connector-curvature="0" />
    <path
       style="fill:#84ffe4;fill-opacity:1;stroke:#84ffe4;stroke-width:0.18763582;stroke-miterlimit:4;stroke-dasharray:none;stroke-opacity:1"
       d="m 194.72413,397.9818 c -0.52086,-0.0465 -1.04051,-0.12755 -1.15477,-0.18005 -0.31925,-0.14669 -0.34691,-1.97291 -0.42951,-28.36095 l -0.0749,-23.92609 -8.812,-13.7021 c -4.8466,-7.53615 -13.01758,-20.23651 -18.15772,-28.22303 -5.14015,-7.98652 -9.50325,-14.83346 -9.69579,-15.21542 -0.90076,-1.78701 -1.2911,-3.73613 -1.08207,-5.40319 0.1579,-1.25925 0.53709,-2.26139 1.49111,-3.94072 0.6221,-1.09507 0.87025,-1.40824 1.42577,-1.79934 0.36992,-0.26043 0.7953,-0.47351 0.9453,-0.47351 0.14999,0 1.03522,-0.23399 1.96717,-0.51998 1.44066,-0.44211 1.91242,-0.52939 3.1498,-0.58277 1.72665,-0.0745 2.608,0.10446 4.03455,0.81913 1.78849,0.89598 0.91202,-0.30512 18.81952,25.78997 3.97944,5.79891 7.63341,11.11168 8.11992,11.80616 0.48652,0.69448 1.17769,1.80809 1.53595,2.4747 1.87752,3.49343 5.21905,6.3991 9.1344,7.94291 5.82767,2.29784 13.6401,2.16619 18.77215,-0.31633 3.62871,-1.75532 6.77145,-5.41099 7.69282,-8.94839 0.12549,-0.48177 0.43275,-1.06008 0.93316,-1.75633 0.41035,-0.57093 5.62082,-8.14069 11.57883,-16.82169 14.09561,-20.53773 13.46671,-19.63939 14.25027,-20.35552 0.78091,-0.7137 2.08581,-1.43428 3.15841,-1.74411 0.5927,-0.1712 1.09059,-0.20295 2.46225,-0.15704 1.59144,0.0533 1.83952,0.0966 3.33537,0.58208 0.88882,0.28849 1.70581,0.52452 1.81553,0.52452 0.10972,0 0.49739,0.17045 0.8615,0.37877 0.59298,0.33927 0.74186,0.52031 1.42771,1.7362 0.42114,0.74659 0.87441,1.61313 1.00727,1.92564 1.00056,2.35347 0.72972,5.34245 -0.7078,7.81147 -0.55798,0.95835 -6.14829,9.68719 -22.79344,35.5902 l -11.70229,18.21099 -0.12065,20.61675 c -0.15231,26.0269 -0.23049,35.84839 -0.28579,35.90369 -0.10626,0.10626 -6.38925,0.17389 -22.32019,0.24026 -9.4102,0.0392 -17.67767,0.0907 -18.37215,0.11449 -0.69448,0.0238 -1.68885,0.005 -2.20971,-0.0414 z m 41.66478,-52.50246 c -0.004,-1.5833 -0.021,-1.71396 -0.19678,-1.48366 -0.11729,0.15366 -0.16354,0.37614 -0.11812,0.56821 0.0411,0.17362 0.10894,0.84127 0.15085,1.48366 0.0419,0.6424 0.0969,1.16799 0.12213,1.16799 0.0253,0 0.0441,-0.78129 0.0419,-1.7362 z m 2.97342,-9.31234 c 0.39756,-0.64456 0.002,-0.17399 -0.67929,0.80898 -0.35674,0.51439 -0.64862,0.99677 -0.64862,1.07194 0,0.12322 0.7265,-0.90583 1.32791,-1.88092 z"
       id="path4739"
       inkscape:connector-curvature="0" />
    <ellipse
       style="fill:none;stroke:#84ffe4;stroke-width:1.48552227;stroke-miterlimit:4;stroke-dasharray:none;stroke-opacity:1"
       id="path4261-8-9"
       cx="397.40298"
       cy="292.64203"
       rx="25.753279"
       ry="24.774071" />
    <path
       style="fill:none;fill-rule:evenodd;stroke:#84ffe4;stroke-width:1.48552227;stroke-linecap:butt;stroke-linejoin:miter;stroke-miterlimit:4;stroke-dasharray:none;stroke-opacity:1"
       d="m 377.20395,316.20144 c 0,0 4.04012,11.86757 20.19904,11.61983 16.15892,-0.24774 17.9263,-12.63477 17.9263,-12.63477"
       id="path4277-0-2"
       inkscape:connector-curvature="0"
       sodipodi:nodetypes="csc" />
    <path
       style="fill:none;fill-rule:evenodd;stroke:#84ffe4;stroke-width:1.48552227;stroke-linecap:butt;stroke-linejoin:miter;stroke-miterlimit:4;stroke-dasharray:none;stroke-opacity:1"
       d="m 418.58586,340.47647 0.50607,-0.50028 -0.25249,58.71456"
       id="path4302-0-0-6"
       inkscape:connector-curvature="0"
       sodipodi:nodetypes="ccc" />
    <path
       style="fill:none;fill-rule:evenodd;stroke:#84ffe4;stroke-width:1.48552227;stroke-linecap:butt;stroke-linejoin:miter;stroke-miterlimit:4;stroke-dasharray:none;stroke-opacity:1"
       d="m 375.68944,398.17964 42.92213,-0.24774"
       id="path4319-0-5"
       inkscape:connector-curvature="0" />
    <path
       style="fill:#84ffe4;fill-opacity:1;stroke:#84ffe4;stroke-width:0.75018871;stroke-miterlimit:4;stroke-dasharray:none;stroke-opacity:1"
       d="m 392.12794,316.01441 c -5.7322,-1.2267 -11.25847,-4.69006 -14.79953,-9.27501 -1.6187,-2.09587 -3.49935,-6.03447 -4.1629,-8.71826 -0.69253,-2.80097 -0.75514,-7.50819 -0.13601,-10.22522 2.16396,-9.49641 9.6439,-16.57465 19.72965,-18.67008 0.83913,-0.17434 3.03537,-0.30482 4.92342,-0.29251 2.78515,0.0181 3.85269,0.13667 5.83713,0.64795 9.62857,2.48078 16.5996,9.74198 18.4205,19.18729 0.44806,2.32418 0.16798,7.902 -0.51243,10.20472 -1.20349,4.073 -3.22222,7.41604 -6.30467,10.4406 -3.15252,3.09329 -6.9895,5.28646 -11.25469,6.43301 -2.89293,0.77767 -8.7346,0.91077 -11.74047,0.26751 z"
       id="path4381-4-5"
       inkscape:connector-curvature="0" />
    <path
       style="fill:none;fill-rule:evenodd;stroke:#84ffe4;stroke-width:1.48599994;stroke-linecap:butt;stroke-linejoin:miter;stroke-miterlimit:4;stroke-dasharray:none;stroke-opacity:1"
       d="m 376.3712,347.19623 -36.47933,-56.71392 c 0,0 -3.45832,-4.33809 -1.33536,-8.69989 0.54292,-1.11548 1.18359,-2.4253 2.78374,-3.58904"
       id="path4691-6"
       inkscape:connector-curvature="0"
       sodipodi:nodetypes="ccsc" />
    <path
       style="fill:none;fill-rule:evenodd;stroke:#84ffe4;stroke-width:1.48599994;stroke-linecap:butt;stroke-linejoin:miter;stroke-miterlimit:4;stroke-dasharray:none;stroke-opacity:1"
       d="m 377.9149,317.50262 -25.79722,-37.62256 c 0,0 -2.77607,-4.01523 -8.36409,-2.16639 -5.68379,1.88053 -3.23223,1.25713 -3.23223,1.25713"
       id="path4695-6"
       inkscape:connector-curvature="0"
       sodipodi:nodetypes="ccsc" />
    <path
       style="fill:none;fill-rule:evenodd;stroke:#84ffe4;stroke-width:1.48599994;stroke-linecap:butt;stroke-linejoin:miter;stroke-miterlimit:4;stroke-dasharray:none;stroke-opacity:1"
       d="m 416.49497,345.89104 36.47933,-56.71392 c 0,0 3.45832,-4.33809 1.33536,-8.69989 -0.54292,-1.11548 -1.18359,-2.4253 -2.78374,-3.58904"
       id="path4691-7-9"
       inkscape:connector-curvature="0"
       sodipodi:nodetypes="ccsc" />
    <path
       style="fill:none;fill-rule:evenodd;stroke:#84ffe4;stroke-width:1.48599994;stroke-linecap:butt;stroke-linejoin:miter;stroke-miterlimit:4;stroke-dasharray:none;stroke-opacity:1"
       d="m 414.95127,316.19743 25.79722,-37.62256 c 0,0 2.77607,-4.01523 8.36409,-2.16639 5.68379,1.88053 3.23223,1.25713 3.23223,1.25713"
       id="path4695-2-5"
       inkscape:connector-curvature="0"
       sodipodi:nodetypes="ccsc" />
    <path
       style="fill:#84ffe4;fill-opacity:1;stroke:#84ffe4;stroke-width:0.7505433;stroke-miterlimit:4;stroke-dasharray:none;stroke-opacity:1"
       d="m 376.66268,368.63683 c 0.0159,-15.73012 -0.0844,-28.7134 -0.22271,-28.85176 -0.63244,-0.63244 -1.81034,0.47593 -1.81034,1.70348 0,0.97515 -4.91539,-6.28405 -17.47274,-25.80424 -9.61001,-14.9386 -17.70596,-27.8301 -17.991,-28.64777 -1.28309,-3.68068 0.55235,-7.09299 4.48142,-8.33152 2.46764,-0.77785 2.97429,-0.79196 4.8726,-0.13572 1.98474,0.68613 2.7006,1.57805 11.33036,14.11693 5.06647,7.36148 11.59086,16.9319 14.49865,21.26758 2.90779,4.33568 6.09874,8.59587 7.09099,9.46708 3.87834,3.40522 9.06487,5.12575 15.45155,5.12575 9.11479,0 14.74512,-3.17328 18.4227,-10.38313 2.42729,-4.75866 26.03536,-39.24327 27.63093,-40.36085 2.48554,-1.74094 8.39622,-0.5445 9.98144,2.02044 1.12109,1.81396 1.3242,5.25104 0.41139,6.96169 -2.42846,4.55104 -32.66758,50.8502 -33.8147,51.77372 -0.80137,0.64516 -1.45703,1.64112 -1.45703,2.21322 0,0.57211 -0.48339,1.82234 -1.0742,2.77829 -0.81936,1.32576 -0.93419,1.87808 -0.48404,2.32823 0.45015,0.45016 0.70314,0.41143 1.06646,-0.16324 0.30199,-0.47766 0.47914,8.81257 0.48404,25.38432 l 0.008,26.1377 -20.71618,0 -20.71618,0 0.0289,-28.6002 z"
       id="path4733-2"
       inkscape:connector-curvature="0" />
    <path
       style="fill:#84ffe4;fill-opacity:1;stroke:#84ffe4;stroke-width:0.18763582;stroke-miterlimit:4;stroke-dasharray:none;stroke-opacity:1"
       d="m 375.72088,398.74981 c 0,-0.0695 -0.11365,-0.12627 -0.25254,-0.12627 -0.24844,0 -0.25266,-0.0866 -0.25982,-5.33487 -0.004,-2.93418 -0.0532,-14.69142 -0.10923,-26.12722 l -0.10195,-20.79236 -17.52654,-27.25303 c -9.63959,-14.98916 -17.80588,-27.66953 -18.14731,-28.17859 -0.85889,-1.28055 -1.55874,-2.79269 -1.87638,-4.0542 -0.21911,-0.87019 -0.25779,-1.32139 -0.21109,-2.46225 0.0629,-1.53673 0.32217,-2.3743 1.20774,-3.90159 0.24818,-0.42802 0.58525,-1.03392 0.74905,-1.34644 0.32166,-0.61368 1.54557,-1.55805 1.86192,-1.43665 0.0965,0.037 0.8758,-0.1604 1.73184,-0.43871 1.99838,-0.64969 3.05049,-0.82899 4.32647,-0.73731 1.88539,0.13548 3.5708,0.88106 4.86278,2.15116 0.37681,0.37043 5.44236,7.64327 12.84022,18.43529 6.71984,9.80293 12.48904,18.19854 12.82045,18.65692 0.3314,0.45839 0.71529,1.09645 0.85309,1.41793 0.90365,2.10812 3.51058,4.94454 6.05379,6.58669 3.74436,2.41775 9.0587,3.6311 14.17696,3.23685 4.95919,-0.382 8.31522,-1.60774 11.24322,-4.10639 2.22604,-1.89963 4.30993,-5.32886 4.51323,-7.42693 0.005,-0.0494 0.11278,-0.19144 0.24,-0.31568 0.12721,-0.12424 5.87356,-8.46494 12.76966,-18.5349 6.8961,-10.06996 12.74962,-18.56471 13.00782,-18.87723 0.6643,-0.80406 2.16157,-1.78498 3.28564,-2.15256 0.82311,-0.26917 1.17006,-0.30862 2.65165,-0.30158 1.6865,0.008 1.72379,0.0145 3.50448,0.60692 0.98991,0.32934 1.8495,0.56812 1.91019,0.53061 0.17304,-0.10695 1.6564,0.82679 1.6564,1.04266 0,0.10627 0.22412,0.5381 0.49805,0.95963 1.15603,1.77896 1.64853,3.29239 1.64853,5.0659 0,1.36983 -0.31982,2.75458 -0.93175,4.03427 -0.23247,0.48614 -8.12701,12.85765 -17.54343,27.49224 -9.41642,14.6346 -17.17684,26.71315 -17.24539,26.84122 -0.0797,0.14897 -0.17439,10.39613 -0.26274,28.43869 -0.076,15.51319 -0.15183,28.21952 -0.16861,28.23629 -0.031,0.031 -37.07715,0.29722 -41.40886,0.29757 -1.49431,1.2e-4 -2.36754,-0.0464 -2.36754,-0.12608 z m 42.65094,-52.62264 -0.0351,-1.7362 -0.29982,0.42036 c -0.25908,0.36325 -0.2795,0.46497 -0.15029,0.74856 0.0822,0.18051 0.20109,1.38346 0.2641,2.67323 0.063,1.28977 0.1289,2.51549 0.14642,2.72384 0.0549,0.6529 0.11155,-3.00956 0.0747,-4.82979 z m 0.0172,-4.70353 c -0.005,-0.12489 -0.0439,-0.10338 -0.11546,0.0631 -0.14916,0.34712 -0.14916,0.54649 0,0.31567 0.0673,-0.10417 0.11928,-0.27464 0.11546,-0.37881 z m -45.23022,-0.92681 c -0.16603,-0.21946 -0.51513,-0.69732 -0.77578,-1.06193 -0.61287,-0.85731 -0.70637,-0.85384 -0.15646,0.006 0.89766,1.40327 1.03011,1.58123 1.13063,1.5191 0.0569,-0.0352 -0.0324,-0.24352 -0.19839,-0.46298 z m 48.61606,-4.12395 c 2.11408,-3.28302 1.95783,-3.03046 1.87482,-3.03046 -0.0376,0 -0.5747,0.75288 -1.19356,1.67307 -0.61887,0.92018 -1.47219,2.15585 -1.89627,2.74592 -0.42408,0.59008 -0.77106,1.18386 -0.77106,1.31952 0,0.36333 0.0678,0.27093 1.98607,-2.70805 z m -5.12349,-21.11329 c 0.99697,-1.60353 1.06075,-1.71387 0.89706,-1.55201 -0.23724,0.2346 -1.80025,2.59478 -1.80025,2.71842 0,0.24867 0.11872,0.0953 0.90319,-1.16641 z m -76.66463,-26.11134 c -0.0743,-0.1389 -0.16357,-0.25254 -0.19829,-0.25254 -0.0347,0 -0.002,0.11364 0.072,0.25254 0.0743,0.13889 0.16357,0.25254 0.19829,0.25254 0.0347,0 0.002,-0.11365 -0.072,-0.25254 z m 114.23349,-6.58967 c -0.0403,-0.10073 -0.0702,-0.0708 -0.0763,0.0763 -0.005,0.13311 0.0244,0.20768 0.0663,0.16573 0.0419,-0.042 0.0464,-0.15087 0.01,-0.24202 l 0,0 z m -102.82851,-2.42789 c -0.19604,-0.23719 -0.5269,-0.55908 -0.73524,-0.71531 -0.20835,-0.15623 -0.0682,0.0378 0.31136,0.43126 0.77949,0.80789 0.95283,0.92406 0.42388,0.28405 z m -10.07104,-0.80227 c -0.0847,-0.0847 -0.5759,0.29284 -0.80322,0.61739 -0.15403,0.21992 -0.0742,0.18679 0.3272,-0.13579 0.29202,-0.23467 0.50623,-0.45139 0.47602,-0.4816 z m 100.19582,-0.3764 c 0.29966,-0.39933 0.44375,-0.64408 0.32019,-0.54391 -0.23208,0.18816 -1.01498,1.26996 -0.91907,1.26996 0.0297,0 0.29921,-0.32672 0.59888,-0.72605 z m 10.53404,-0.66291 c -0.1257,-0.1389 -0.29077,-0.25128 -0.36681,-0.24973 -0.0761,0.002 0.004,0.11392 0.1774,0.24973 0.40672,0.31814 0.47732,0.31814 0.18941,0 z"
       id="path4737-2"
       inkscape:connector-curvature="0" />
    <path
       style="fill:#84ffe4;fill-opacity:1;stroke:#84ffe4;stroke-width:0.18763582;stroke-miterlimit:4;stroke-dasharray:none;stroke-opacity:1"
       d="m 376.60476,398.88217 c -0.52086,-0.0465 -1.04051,-0.12755 -1.15477,-0.18005 -0.31925,-0.14669 -0.34691,-1.97291 -0.42951,-28.36095 l -0.0749,-23.9261 -8.812,-13.7021 c -4.8466,-7.53615 -13.01758,-20.23651 -18.15772,-28.22303 -5.14015,-7.98652 -9.50325,-14.83346 -9.69579,-15.21542 -0.90076,-1.78701 -1.2911,-3.73613 -1.08207,-5.40319 0.1579,-1.25925 0.53709,-2.26139 1.49111,-3.94072 0.6221,-1.09507 0.87025,-1.40824 1.42577,-1.79934 0.36992,-0.26043 0.7953,-0.47351 0.9453,-0.47351 0.14999,0 1.03522,-0.23399 1.96717,-0.51998 1.44066,-0.44211 1.91242,-0.52939 3.1498,-0.58277 1.72665,-0.0745 2.608,0.10446 4.03455,0.81913 1.78849,0.89598 0.91202,-0.30512 18.81952,25.78997 3.97944,5.79891 7.63341,11.11168 8.11992,11.80616 0.48652,0.69448 1.17769,1.80809 1.53595,2.4747 1.87752,3.49343 5.21905,6.3991 9.1344,7.94291 5.82767,2.29784 13.6401,2.16619 18.77215,-0.31633 3.62871,-1.75532 6.77145,-5.41099 7.69282,-8.94839 0.12549,-0.48177 0.43275,-1.06008 0.93316,-1.75633 0.41035,-0.57093 5.62082,-8.14069 11.57883,-16.82169 14.09561,-20.53773 13.46671,-19.63939 14.25027,-20.35552 0.78091,-0.7137 2.08581,-1.43428 3.15841,-1.74411 0.5927,-0.1712 1.09059,-0.20295 2.46225,-0.15704 1.59144,0.0533 1.83952,0.0966 3.33537,0.58208 0.88882,0.28849 1.70581,0.52452 1.81553,0.52452 0.10972,0 0.49739,0.17045 0.8615,0.37877 0.59298,0.33927 0.74186,0.52031 1.42771,1.7362 0.42114,0.74659 0.87441,1.61313 1.00727,1.92564 1.00056,2.35347 0.72972,5.34245 -0.7078,7.81147 -0.55798,0.95835 -6.14829,9.68719 -22.79344,35.5902 l -11.70229,18.21099 -0.12065,20.61675 c -0.15231,26.02691 -0.23049,35.8484 -0.28579,35.9037 -0.10626,0.10626 -6.38925,0.17389 -22.32019,0.24026 -9.4102,0.0392 -17.67767,0.0907 -18.37215,0.11449 -0.69448,0.0238 -1.68885,0.005 -2.20971,-0.0414 z m 41.66478,-52.50247 c -0.004,-1.5833 -0.021,-1.71396 -0.19678,-1.48366 -0.11729,0.15366 -0.16354,0.37614 -0.11812,0.56821 0.0411,0.17362 0.10894,0.84127 0.15085,1.48366 0.0419,0.6424 0.0969,1.16799 0.12213,1.16799 0.0253,0 0.0441,-0.78129 0.0419,-1.7362 z m 2.97342,-9.31234 c 0.39756,-0.64456 0.002,-0.17399 -0.67929,0.80898 -0.35674,0.51439 -0.64862,0.99677 -0.64862,1.07194 0,0.12322 0.7265,-0.90583 1.32791,-1.88092 z"
       id="path4739-5"
       inkscape:connector-curvature="0" />
    <ellipse
       style="fill:none;stroke:#84ffe4;stroke-width:1.48552227;stroke-miterlimit:4;stroke-dasharray:none;stroke-opacity:1"
       id="path4261-8-3"
       cx="305.97443"
       cy="366.92776"
       rx="25.753279"
       ry="24.774071" />
    <path
       style="fill:none;fill-rule:evenodd;stroke:#84ffe4;stroke-width:1.48552227;stroke-linecap:butt;stroke-linejoin:miter;stroke-miterlimit:4;stroke-dasharray:none;stroke-opacity:1"
       d="m 285.77537,390.48716 c 0,0 4.04012,11.86757 20.19904,11.61983 16.15892,-0.24774 17.9263,-12.63477 17.9263,-12.63477"
       id="path4277-0-9"
       inkscape:connector-curvature="0"
       sodipodi:nodetypes="csc" />
    <path
       style="fill:none;fill-rule:evenodd;stroke:#84ffe4;stroke-width:1.48552227;stroke-linecap:butt;stroke-linejoin:miter;stroke-miterlimit:4;stroke-dasharray:none;stroke-opacity:1"
       d="m 284.25171,415.49421 -10e-4,-1.25789 0.25249,58.71455"
       id="path4302-9-4"
       inkscape:connector-curvature="0"
       sodipodi:nodetypes="ccc" />
    <path
       style="fill:none;fill-rule:evenodd;stroke:#84ffe4;stroke-width:1.48552227;stroke-linecap:butt;stroke-linejoin:miter;stroke-miterlimit:4;stroke-dasharray:none;stroke-opacity:1"
       d="m 327.15728,414.76219 0.50607,-0.50028 -0.25249,58.71455"
       id="path4302-0-0-2"
       inkscape:connector-curvature="0"
       sodipodi:nodetypes="ccc" />
    <path
       style="fill:none;fill-rule:evenodd;stroke:#84ffe4;stroke-width:1.48552227;stroke-linecap:butt;stroke-linejoin:miter;stroke-miterlimit:4;stroke-dasharray:none;stroke-opacity:1"
       d="m 284.26086,472.46535 42.92213,-0.24774"
       id="path4319-0-3"
       inkscape:connector-curvature="0" />
    <path
       style="fill:#84ffe4;fill-opacity:1;stroke:#84ffe4;stroke-width:0.75018871;stroke-miterlimit:4;stroke-dasharray:none;stroke-opacity:1"
       d="m 300.69936,390.30013 c -5.7322,-1.2267 -11.25847,-4.69006 -14.79953,-9.27501 -1.6187,-2.09587 -3.49935,-6.03447 -4.1629,-8.71826 -0.69253,-2.80097 -0.75514,-7.50819 -0.13601,-10.22522 2.16396,-9.49641 9.6439,-16.57465 19.72965,-18.67008 0.83913,-0.17434 3.03537,-0.30482 4.92342,-0.29251 2.78515,0.0181 3.85269,0.13667 5.83713,0.64795 9.62857,2.48078 16.5996,9.74198 18.4205,19.18729 0.44806,2.32418 0.16798,7.902 -0.51243,10.20472 -1.20349,4.073 -3.22222,7.41604 -6.30467,10.4406 -3.15252,3.09329 -6.9895,5.28646 -11.25469,6.43301 -2.89293,0.77767 -8.7346,0.91077 -11.74047,0.26751 z"
       id="path4381-4-3"
       inkscape:connector-curvature="0" />
    <path
       style="fill:none;fill-rule:evenodd;stroke:#84ffe4;stroke-width:1.48599994;stroke-linecap:butt;stroke-linejoin:miter;stroke-miterlimit:4;stroke-dasharray:none;stroke-opacity:1"
       d="m 284.94262,421.48195 -36.47933,-56.71392 c 0,0 -3.45832,-4.33809 -1.33536,-8.69989 0.54292,-1.11548 1.18359,-2.4253 2.78374,-3.58904"
       id="path4691-4"
       inkscape:connector-curvature="0"
       sodipodi:nodetypes="ccsc" />
    <path
       style="fill:none;fill-rule:evenodd;stroke:#84ffe4;stroke-width:1.48599994;stroke-linecap:butt;stroke-linejoin:miter;stroke-miterlimit:4;stroke-dasharray:none;stroke-opacity:1"
       d="M 286.48632,391.78834 260.6891,354.16578 c 0,0 -2.77607,-4.01523 -8.36409,-2.16639 -5.68379,1.88053 -3.23223,1.25713 -3.23223,1.25713"
       id="path4695-4"
       inkscape:connector-curvature="0"
       sodipodi:nodetypes="ccsc" />
    <path
       style="fill:none;fill-rule:evenodd;stroke:#84ffe4;stroke-width:1.48599994;stroke-linecap:butt;stroke-linejoin:miter;stroke-miterlimit:4;stroke-dasharray:none;stroke-opacity:1"
       d="m 325.06639,420.17676 36.47934,-56.71392 c 0,0 3.45832,-4.33809 1.33536,-8.69989 -0.54292,-1.11548 -1.18359,-2.4253 -2.78374,-3.58904"
       id="path4691-7-1"
       inkscape:connector-curvature="0"
       sodipodi:nodetypes="ccsc" />
    <path
       style="fill:none;fill-rule:evenodd;stroke:#84ffe4;stroke-width:1.48599994;stroke-linecap:butt;stroke-linejoin:miter;stroke-miterlimit:4;stroke-dasharray:none;stroke-opacity:1"
       d="m 323.52269,390.48315 25.79723,-37.62256 c 0,0 2.77607,-4.01523 8.36409,-2.16639 5.68379,1.88053 3.23223,1.25713 3.23223,1.25713"
       id="path4695-2-1"
       inkscape:connector-curvature="0"
       sodipodi:nodetypes="ccsc" />
    <path
       style="fill:#84ffe4;fill-opacity:1;stroke:#84ffe4;stroke-width:0.7505433;stroke-miterlimit:4;stroke-dasharray:none;stroke-opacity:1"
       d="m 285.2341,442.92254 c 0.0159,-15.73011 -0.0844,-28.71339 -0.22271,-28.85175 -0.63244,-0.63244 -1.81034,0.47593 -1.81034,1.70348 0,0.97515 -4.91539,-6.28405 -17.47274,-25.80424 -9.61001,-14.9386 -17.70596,-27.8301 -17.991,-28.64777 -1.28309,-3.68068 0.55235,-7.09299 4.48142,-8.33152 2.46764,-0.77785 2.97429,-0.79196 4.8726,-0.13572 1.98474,0.68613 2.7006,1.57805 11.33036,14.11693 5.06647,7.36148 11.59086,16.9319 14.49865,21.26758 2.90779,4.33568 6.09874,8.59587 7.09099,9.46708 3.87834,3.40522 9.06487,5.12575 15.45155,5.12575 9.11479,0 14.74512,-3.17328 18.4227,-10.38313 2.42729,-4.75866 26.03537,-39.24327 27.63094,-40.36085 2.48554,-1.74094 8.39622,-0.5445 9.98144,2.02044 1.12109,1.81396 1.3242,5.25104 0.41139,6.96169 -2.42846,4.55104 -32.66759,50.8502 -33.81471,51.77372 -0.80137,0.64516 -1.45703,1.64112 -1.45703,2.21322 0,0.57211 -0.48339,1.82234 -1.0742,2.77829 -0.81936,1.32576 -0.93419,1.87808 -0.48404,2.32823 0.45015,0.45016 0.70314,0.41143 1.06646,-0.16324 0.30199,-0.47766 0.47914,8.81257 0.48404,25.38431 l 0.008,26.1377 -20.71618,0 -20.71618,0 0.0289,-28.6002 z"
       id="path4733-0"
       inkscape:connector-curvature="0" />
    <path
       style="fill:#84ffe4;fill-opacity:1;stroke:#84ffe4;stroke-width:0.18763582;stroke-miterlimit:4;stroke-dasharray:none;stroke-opacity:1"
       d="m 282.66617,416.51369 c -0.83536,-1.29857 -0.95207,-1.63678 -0.27338,-0.79224 0.34702,0.43182 0.4754,0.50828 0.77871,0.46376 l 0.36318,-0.0533 0,0.79888 c 0,0.43938 -0.0194,0.79888 -0.0431,0.79888 -0.0237,0 -0.39514,-0.54719 -0.82537,-1.21598 z"
       id="path4735-9"
       inkscape:connector-curvature="0" />
    <path
       style="fill:#84ffe4;fill-opacity:1;stroke:#84ffe4;stroke-width:0.18763582;stroke-miterlimit:4;stroke-dasharray:none;stroke-opacity:1"
       d="m 284.2923,473.03552 c 0,-0.0695 -0.11365,-0.12627 -0.25254,-0.12627 -0.24844,0 -0.25266,-0.0866 -0.25982,-5.33487 -0.004,-2.93418 -0.0532,-14.69142 -0.10923,-26.12722 l -0.10195,-20.79235 -17.52654,-27.25303 c -9.63959,-14.98916 -17.80588,-27.66953 -18.14731,-28.17859 -0.85889,-1.28055 -1.55874,-2.79269 -1.87638,-4.0542 -0.21911,-0.87019 -0.25779,-1.32139 -0.21109,-2.46225 0.0629,-1.53673 0.32217,-2.3743 1.20774,-3.90159 0.24818,-0.42802 0.58525,-1.03392 0.74905,-1.34644 0.32166,-0.61368 1.54557,-1.55805 1.86192,-1.43665 0.0965,0.037 0.8758,-0.1604 1.73184,-0.43871 1.99838,-0.64969 3.05049,-0.82899 4.32647,-0.73731 1.88539,0.13548 3.5708,0.88106 4.86278,2.15116 0.37681,0.37043 5.44236,7.64327 12.84022,18.43529 6.71984,9.80293 12.48904,18.19854 12.82045,18.65692 0.3314,0.45839 0.71529,1.09645 0.85309,1.41793 0.90365,2.10812 3.51058,4.94454 6.05379,6.58669 3.74436,2.41775 9.0587,3.6311 14.17696,3.23685 4.95919,-0.382 8.31522,-1.60774 11.24322,-4.10639 2.22604,-1.89963 4.30993,-5.32886 4.51323,-7.42693 0.005,-0.0494 0.11278,-0.19144 0.24,-0.31568 0.12721,-0.12424 5.87356,-8.46494 12.76966,-18.5349 6.8961,-10.06996 12.74963,-18.56471 13.00783,-18.87723 0.6643,-0.80406 2.16157,-1.78498 3.28564,-2.15256 0.82311,-0.26917 1.17006,-0.30862 2.65165,-0.30158 1.6865,0.008 1.72379,0.0145 3.50448,0.60692 0.98991,0.32934 1.8495,0.56812 1.91019,0.53061 0.17304,-0.10695 1.6564,0.82679 1.6564,1.04266 0,0.10627 0.22412,0.5381 0.49805,0.95963 1.15603,1.77896 1.64853,3.29239 1.64853,5.0659 0,1.36983 -0.31982,2.75458 -0.93175,4.03427 -0.23247,0.48614 -8.12701,12.85765 -17.54343,27.49224 -9.41643,14.6346 -17.17685,26.71315 -17.2454,26.84122 -0.0797,0.14897 -0.17439,10.39613 -0.26274,28.43868 -0.076,15.51319 -0.15183,28.21952 -0.16861,28.23629 -0.031,0.031 -37.07715,0.29722 -41.40886,0.29757 -1.49431,1.2e-4 -2.36754,-0.0464 -2.36754,-0.12608 z m 42.65094,-52.62263 -0.0351,-1.7362 -0.29982,0.42036 c -0.25908,0.36325 -0.2795,0.46497 -0.15029,0.74856 0.0822,0.18051 0.20109,1.38346 0.2641,2.67323 0.063,1.28977 0.1289,2.51549 0.14642,2.72384 0.0549,0.6529 0.11155,-3.00956 0.0747,-4.82979 z m 0.0172,-4.70353 c -0.005,-0.12489 -0.0439,-0.10338 -0.11546,0.0631 -0.14916,0.34712 -0.14916,0.54649 0,0.31567 0.0673,-0.10417 0.11928,-0.27464 0.11546,-0.37881 z m -45.23022,-0.92681 c -0.16603,-0.21946 -0.51513,-0.69732 -0.77578,-1.06193 -0.61287,-0.85731 -0.70637,-0.85384 -0.15646,0.006 0.89766,1.40327 1.03011,1.58123 1.13063,1.5191 0.0569,-0.0352 -0.0324,-0.24352 -0.19839,-0.46298 z m 48.61606,-4.12395 c 2.11408,-3.28302 1.95783,-3.03046 1.87482,-3.03046 -0.0376,0 -0.5747,0.75288 -1.19356,1.67307 -0.61887,0.92018 -1.47219,2.15585 -1.89627,2.74592 -0.42408,0.59008 -0.77106,1.18386 -0.77106,1.31952 0,0.36333 0.0678,0.27093 1.98607,-2.70805 z m -5.12349,-21.11329 c 0.99697,-1.60353 1.06075,-1.71387 0.89706,-1.55201 -0.23724,0.2346 -1.80025,2.59478 -1.80025,2.71842 0,0.24867 0.11872,0.0953 0.90319,-1.16641 z m -76.66463,-26.11134 c -0.0743,-0.1389 -0.16357,-0.25254 -0.19829,-0.25254 -0.0347,0 -0.002,0.11364 0.072,0.25254 0.0743,0.13889 0.16357,0.25254 0.19829,0.25254 0.0347,0 0.002,-0.11365 -0.072,-0.25254 z m 114.2335,-6.58967 c -0.0403,-0.10073 -0.0702,-0.0708 -0.0763,0.0763 -0.005,0.13311 0.0244,0.20768 0.0663,0.16573 0.0419,-0.042 0.0464,-0.15087 0.01,-0.24202 l 0,0 z m -102.82852,-2.42789 c -0.19604,-0.23719 -0.5269,-0.55908 -0.73524,-0.71531 -0.20835,-0.15623 -0.0682,0.0378 0.31136,0.43126 0.77949,0.80789 0.95283,0.92406 0.42388,0.28405 z m -10.07104,-0.80227 c -0.0847,-0.0847 -0.5759,0.29284 -0.80322,0.61739 -0.15403,0.21992 -0.0742,0.18679 0.3272,-0.13579 0.29202,-0.23467 0.50623,-0.45139 0.47602,-0.4816 z m 100.19583,-0.3764 c 0.29966,-0.39933 0.44375,-0.64408 0.32019,-0.54391 -0.23208,0.18816 -1.01498,1.26996 -0.91907,1.26996 0.0297,0 0.29921,-0.32672 0.59888,-0.72605 z m 10.53404,-0.66291 c -0.1257,-0.1389 -0.29077,-0.25128 -0.36681,-0.24973 -0.0761,0.002 0.004,0.11392 0.1774,0.24973 0.40672,0.31814 0.47732,0.31814 0.18941,0 z"
       id="path4737-7"
       inkscape:connector-curvature="0" />
    <path
       style="fill:#84ffe4;fill-opacity:1;stroke:#84ffe4;stroke-width:0.18763582;stroke-miterlimit:4;stroke-dasharray:none;stroke-opacity:1"
       d="m 285.17618,473.16788 c -0.52086,-0.0465 -1.04051,-0.12755 -1.15477,-0.18005 -0.31925,-0.14669 -0.34691,-1.97291 -0.42951,-28.36095 l -0.0749,-23.92609 -8.812,-13.7021 c -4.8466,-7.53615 -13.01758,-20.23651 -18.15772,-28.22303 -5.14015,-7.98652 -9.50325,-14.83346 -9.69579,-15.21542 -0.90076,-1.78701 -1.2911,-3.73613 -1.08207,-5.40319 0.1579,-1.25925 0.53709,-2.26139 1.49111,-3.94072 0.6221,-1.09507 0.87025,-1.40824 1.42577,-1.79934 0.36992,-0.26043 0.7953,-0.47351 0.9453,-0.47351 0.14999,0 1.03522,-0.23399 1.96717,-0.51998 1.44066,-0.44211 1.91242,-0.52939 3.1498,-0.58277 1.72665,-0.0745 2.608,0.10446 4.03455,0.81913 1.78849,0.89598 0.91202,-0.30512 18.81952,25.78997 3.97944,5.79891 7.63341,11.11168 8.11992,11.80616 0.48652,0.69448 1.17769,1.80809 1.53595,2.4747 1.87752,3.49343 5.21905,6.3991 9.1344,7.94291 5.82767,2.29784 13.6401,2.16619 18.77215,-0.31633 3.62871,-1.75532 6.77145,-5.41099 7.69282,-8.94839 0.12549,-0.48177 0.43275,-1.06008 0.93316,-1.75633 0.41035,-0.57093 5.62082,-8.14069 11.57883,-16.82169 14.09562,-20.53773 13.46672,-19.63939 14.25028,-20.35552 0.78091,-0.7137 2.08581,-1.43428 3.15841,-1.74411 0.5927,-0.1712 1.09059,-0.20295 2.46225,-0.15704 1.59144,0.0533 1.83952,0.0966 3.33537,0.58208 0.88882,0.28849 1.70581,0.52452 1.81553,0.52452 0.10972,0 0.49739,0.17045 0.8615,0.37877 0.59298,0.33927 0.74186,0.52031 1.42771,1.7362 0.42114,0.74659 0.87441,1.61313 1.00727,1.92564 1.00056,2.35347 0.72972,5.34245 -0.7078,7.81147 -0.55798,0.95835 -6.14829,9.68719 -22.79345,35.5902 l -11.70229,18.21099 -0.12065,20.61675 c -0.15231,26.0269 -0.23049,35.84839 -0.28579,35.90369 -0.10626,0.10626 -6.38925,0.17389 -22.32019,0.24026 -9.4102,0.0392 -17.67767,0.0907 -18.37215,0.11449 -0.69448,0.0238 -1.68885,0.005 -2.20971,-0.0414 z m 41.66478,-52.50246 c -0.004,-1.5833 -0.021,-1.71396 -0.19678,-1.48366 -0.11729,0.15366 -0.16354,0.37614 -0.11812,0.56821 0.0411,0.17362 0.10894,0.84127 0.15085,1.48366 0.0419,0.6424 0.0969,1.16799 0.12213,1.16799 0.0253,0 0.0441,-0.78129 0.0419,-1.7362 z m 2.97342,-9.31234 c 0.39756,-0.64456 0.002,-0.17399 -0.67929,0.80898 -0.35674,0.51439 -0.64862,0.99677 -0.64862,1.07194 0,0.12322 0.7265,-0.90583 1.32791,-1.88092 z"
       id="path4739-1"
       inkscape:connector-curvature="0" />
    <path
       style="fill:none;fill-rule:evenodd;stroke:#84ffe4;stroke-width:9.00990868;stroke-linecap:butt;stroke-linejoin:miter;stroke-miterlimit:4;stroke-dasharray:none;stroke-opacity:1"
       d="m 144.28572,223.07649 326.42857,0"
       id="path4901"
       inkscape:connector-curvature="0" />
    <path
       style="fill:none;fill-rule:evenodd;stroke:#84ffe4;stroke-width:3.8;stroke-linecap:butt;stroke-linejoin:miter;stroke-opacity:1;stroke-miterlimit:4;stroke-dasharray:none"
       d="m 380.35714,223.43363 0.71429,-82.14285"
       id="path4903-5"
       inkscape:connector-curvature="0" />
    <path
       style="fill:none;fill-rule:evenodd;stroke:#84ffe4;stroke-width:3.79999995;stroke-linecap:butt;stroke-linejoin:miter;stroke-miterlimit:4;stroke-dasharray:none;stroke-opacity:1"
       d="m 216.07143,222.71934 0.71429,-82.14285"
       id="path4903-5-2"
       inkscape:connector-curvature="0" />
    <ellipse
       style="fill:#84ffe4;fill-opacity:1;stroke:#84ffe4;stroke-width:3.79999995;stroke-miterlimit:4;stroke-dasharray:none;stroke-opacity:1"
       id="path4967"
       cx="244.28572"
       cy="147.00507"
       rx="8.5714283"
       ry="7.5" />
    <ellipse
       style="fill:#84ffe4;fill-opacity:1;stroke:#84ffe4;stroke-width:3.79999995;stroke-miterlimit:4;stroke-dasharray:none;stroke-opacity:1"
       id="path4969"
       cx="304.28571"
       cy="138.79077"
       rx="7.8571429"
       ry="10.714286" />
    <ellipse
       style="fill:#84ffe4;fill-opacity:1;stroke:#84ffe4;stroke-width:3.79999995;stroke-miterlimit:4;stroke-dasharray:none;stroke-opacity:1"
       id="path4971"
       cx="355.71429"
       cy="142.00507"
       rx="10"
       ry="9.6428576" />
    <path
       style="fill:none;fill-rule:evenodd;stroke:#84ffe4;stroke-width:0.34638971px;stroke-linecap:butt;stroke-linejoin:miter;stroke-opacity:1"
       d="m 257.36371,195.10997 -3.08709,22.80457 6.0507,-0.37182 3.828,-22.80457"
       id="path4975"
       inkscape:connector-curvature="0" />
    <path
       style="fill:none;fill-rule:evenodd;stroke:#84ffe4;stroke-width:0.34638971px;stroke-linecap:butt;stroke-linejoin:miter;stroke-opacity:1"
       d="m 272.29065,195.21723 3.08709,22.80457 -6.0507,-0.37181 -3.828,-22.80457"
       id="path4975-7"
       inkscape:connector-curvature="0" />
    <path
       style="fill:#84ffe4;fill-opacity:1;stroke:#84ffe4;stroke-width:0.16787529;stroke-miterlimit:4;stroke-dasharray:none;stroke-opacity:1"
       d="m 254.54936,217.43445 c 0.0294,-0.13633 0.69534,-5.04427 1.4799,-10.90653 0.78457,-5.86226 1.45376,-10.78414 1.48709,-10.93751 l 0.0606,-0.27886 3.14883,0 3.14883,0 -0.0644,0.27886 c -0.0354,0.15337 -0.87325,5.10178 -1.86189,10.99646 -0.98864,5.89469 -1.80814,10.72759 -1.82112,10.7398 -0.0129,0.0122 -1.28533,0.0972 -2.82745,0.18892 -2.78248,0.16547 -2.80347,0.16485 -2.75046,-0.0811 z"
       id="path5004"
       inkscape:connector-curvature="0" />
    <path
       style="fill:#84ffe4;fill-opacity:1;stroke:#84ffe4;stroke-width:0.16787529;stroke-miterlimit:4;stroke-dasharray:none;stroke-opacity:1"
       d="m 271.80608,217.60149 c -1.2382,-0.0802 -2.27012,-0.17014 -2.29317,-0.19982 -0.0519,-0.0668 -3.67591,-21.80758 -3.67088,-22.02196 0.003,-0.11975 0.71156,-0.15492 3.12193,-0.15492 l 3.11829,0 1.4668,10.87555 c 0.80674,5.98155 1.49457,11.05681 1.52851,11.27834 l 0.0617,0.4028 -0.54097,-0.017 c -0.29753,-0.009 -1.55402,-0.0827 -2.79222,-0.16293 z"
       id="path5006"
       inkscape:connector-curvature="0" />
    <path
       style="fill:none;fill-rule:evenodd;stroke:#84ffe4;stroke-width:0.51456964;stroke-linecap:butt;stroke-linejoin:miter;stroke-miterlimit:4;stroke-dasharray:none;stroke-opacity:1"
       d="m 324.20608,193.90297 14.84052,-0.086"
       id="path4319-7-3"
       inkscape:connector-curvature="0" />
    <path
       style="fill:#84ffe4;fill-opacity:1;stroke:#84ffe4;stroke-width:0.24574476;stroke-miterlimit:4;stroke-dasharray:none;stroke-opacity:1"
       d="m 329.48885,168.18358 c -1.79793,-0.41968 -3.53127,-1.60456 -4.64193,-3.17315 -0.50772,-0.71704 -1.09759,-2.06451 -1.30572,-2.98268 -0.21721,-0.95826 -0.23685,-2.56869 -0.0427,-3.49824 0.67874,-3.24889 3.02485,-5.67049 6.18829,-6.38737 0.2632,-0.0596 0.95205,-0.10429 1.54425,-0.10008 0.87358,0.006 1.20841,0.0468 1.83084,0.22168 3.02004,0.84872 5.20654,3.33291 5.77767,6.56433 0.14053,0.79514 0.0527,2.70342 -0.16073,3.49122 -0.37748,1.39345 -1.01066,2.53716 -1.97749,3.57192 -0.9888,1.05827 -2.19229,1.8086 -3.53008,2.20085 -0.90738,0.26605 -2.73964,0.31159 -3.68244,0.0915 z"
       id="path4381-3-0"
       inkscape:connector-curvature="0" />
    <path
       style="fill:none;fill-rule:evenodd;stroke:#84ffe4;stroke-width:0.34638971px;stroke-linecap:butt;stroke-linejoin:miter;stroke-opacity:1"
       d="m 324.21621,193.9936 -3.08709,22.80457 6.0507,-0.37182 3.828,-22.80457"
       id="path4975-9-9"
       inkscape:connector-curvature="0" />
    <path
       style="fill:none;fill-rule:evenodd;stroke:#84ffe4;stroke-width:0.34638971px;stroke-linecap:butt;stroke-linejoin:miter;stroke-opacity:1"
       d="m 339.14315,194.10086 3.08709,22.80457 -6.0507,-0.37181 -3.828,-22.80457"
       id="path4975-7-9-2"
       inkscape:connector-curvature="0" />
    <path
       style="fill:#84ffe4;fill-opacity:1;stroke:#84ffe4;stroke-width:0.16787529;stroke-miterlimit:4;stroke-dasharray:none;stroke-opacity:1"
       d="m 321.40186,216.31808 c 0.0294,-0.13633 0.69534,-5.04427 1.4799,-10.90653 0.78457,-5.86226 1.45376,-10.78414 1.48709,-10.93751 l 0.0606,-0.27886 3.14883,0 3.14883,0 -0.0644,0.27886 c -0.0354,0.15337 -0.87325,5.10178 -1.86189,10.99646 -0.98864,5.89469 -1.80814,10.72759 -1.82112,10.7398 -0.0129,0.0122 -1.28533,0.0972 -2.82745,0.18892 -2.78248,0.16547 -2.80347,0.16485 -2.75046,-0.0811 z"
       id="path5004-1-5"
       inkscape:connector-curvature="0" />
    <path
       style="fill:#84ffe4;fill-opacity:1;stroke:#84ffe4;stroke-width:0.16787529;stroke-miterlimit:4;stroke-dasharray:none;stroke-opacity:1"
       d="m 338.65858,216.48512 c -1.2382,-0.0802 -2.27012,-0.17014 -2.29317,-0.19982 -0.0519,-0.0668 -3.67591,-21.80758 -3.67088,-22.02196 0.003,-0.11975 0.71156,-0.15492 3.12193,-0.15492 l 3.11829,0 1.4668,10.87555 c 0.80674,5.98155 1.49457,11.05681 1.52851,11.27834 l 0.0617,0.4028 -0.54097,-0.017 c -0.29753,-0.009 -1.55402,-0.0827 -2.79222,-0.16293 z"
       id="path5006-0-7"
       inkscape:connector-curvature="0" />
    <path
       style="fill:#84ffe4;fill-opacity:1;stroke:#84ffe4;stroke-width:0.06096029;stroke-miterlimit:4;stroke-dasharray:none;stroke-opacity:1"
       d="m 324.5605,194.55132 c -0.18045,-0.0142 -0.36049,-0.0389 -0.40008,-0.0549 -0.11061,-0.0447 -0.12019,-0.60106 -0.1488,-8.64041 l -0.0259,-7.28932 -3.05298,-4.17447 c -1.67913,-2.29595 -4.51001,-6.16523 -6.29084,-8.5984 -1.78085,-2.43317 -3.29247,-4.51915 -3.35918,-4.63552 -0.31207,-0.54443 -0.44731,-1.13824 -0.37488,-1.64613 0.0547,-0.38364 0.18607,-0.68895 0.51659,-1.20058 0.21554,-0.33362 0.30151,-0.42903 0.49397,-0.54818 0.12816,-0.0793 0.27554,-0.14426 0.32751,-0.14426 0.052,0 0.35866,-0.0713 0.68154,-0.15842 0.49913,-0.13469 0.66257,-0.16128 1.09126,-0.17754 0.59822,-0.0227 0.90357,0.0318 1.3978,0.24955 0.61964,0.27297 0.31598,-0.093 6.52014,7.85715 1.3787,1.76669 2.64464,3.38528 2.81319,3.59686 0.16857,0.21158 0.40803,0.55085 0.53215,0.75394 0.65047,1.0643 1.80817,1.94954 3.16466,2.41988 2.01904,0.70006 4.7257,0.65995 6.50373,-0.0964 1.25719,-0.53478 2.34601,-1.64851 2.66523,-2.72621 0.0435,-0.14678 0.14992,-0.32296 0.3233,-0.53508 0.14217,-0.17394 1.94737,-2.48014 4.01156,-5.12488 4.88351,-6.25701 4.66562,-5.98332 4.93708,-6.2015 0.27055,-0.21744 0.72265,-0.43697 1.09426,-0.53136 0.20534,-0.0522 0.37784,-0.0618 0.85306,-0.0478 0.55137,0.0162 0.63731,0.0294 1.15556,0.17734 0.30793,0.0879 0.59099,0.1598 0.629,0.1598 0.038,0 0.17232,0.0519 0.29847,0.11539 0.20544,0.10336 0.25702,0.15852 0.49464,0.52895 0.14591,0.22746 0.30295,0.49146 0.34898,0.58666 0.34664,0.71701 0.25281,1.62763 -0.24522,2.37984 -0.19332,0.29197 -2.13011,2.95129 -7.89693,10.84288 l -4.05433,5.54815 -0.0418,6.28108 c -0.0528,7.92935 -0.0798,10.92155 -0.099,10.93839 -0.0368,0.0324 -2.21359,0.053 -7.73296,0.0732 -3.26022,0.0119 -6.12454,0.0276 -6.36515,0.0349 -0.24061,0.007 -0.58511,0.002 -0.76557,-0.0126 z m 14.43502,-15.99536 c -10e-4,-0.48237 -0.007,-0.52218 -0.0682,-0.45201 -0.0406,0.0468 -0.0567,0.11459 -0.0409,0.17311 0.0143,0.0529 0.0377,0.2563 0.0523,0.45201 0.0146,0.19571 0.0335,0.35584 0.0423,0.35584 0.009,0 0.0153,-0.23803 0.0146,-0.52895 z m 1.03016,-2.83709 c 0.13774,-0.19637 6.9e-4,-0.053 -0.23534,0.24646 -0.1236,0.15671 -0.22473,0.30368 -0.22473,0.32658 0,0.0375 0.25171,-0.27597 0.46007,-0.57304 z"
       id="path4739-5-6-1"
       inkscape:connector-curvature="0" />
  </g>
</svg>
