<?xml version="1.0" encoding="UTF-8" standalone="no"?>
<!-- Created with Inkscape (http://www.inkscape.org/) -->

<svg
   xmlns:dc="http://purl.org/dc/elements/1.1/"
   xmlns:cc="http://creativecommons.org/ns#"
   xmlns:rdf="http://www.w3.org/1999/02/22-rdf-syntax-ns#"
   xmlns:svg="http://www.w3.org/2000/svg"
   xmlns="http://www.w3.org/2000/svg"
   xmlns:sodipodi="http://sodipodi.sourceforge.net/DTD/sodipodi-0.dtd"
   xmlns:inkscape="http://www.inkscape.org/namespaces/inkscape"
   width="210mm"
   height="297mm"
   viewBox="0 0 744.09448819 1052.3622047"
   id="svg2"
   version="1.1"
   inkscape:version="0.91 r13725"
   sodipodi:docname="login.svg">
  <defs
     id="defs4" />
  <sodipodi:namedview
     id="base"
     pagecolor="#ffffff"
     bordercolor="#666666"
     borderopacity="1.0"
     inkscape:pageopacity="0.0"
     inkscape:pageshadow="2"
     inkscape:zoom="1.979899"
     inkscape:cx="198.6502"
     inkscape:cy="780.19243"
     inkscape:document-units="px"
     inkscape:current-layer="layer1"
     showgrid="false"
     inkscape:window-width="959"
     inkscape:window-height="1022"
     inkscape:window-x="960"
     inkscape:window-y="0"
     inkscape:window-maximized="0"
     showguides="true"
     inkscape:guide-bbox="true" />
  <metadata
     id="metadata7">
    <rdf:RDF>
      <cc:Work
         rdf:about="">
        <dc:format>image/svg+xml</dc:format>
        <dc:type
           rdf:resource="http://purl.org/dc/dcmitype/StillImage" />
        <dc:title></dc:title>
      </cc:Work>
    </rdf:RDF>
  </metadata>
  <g
     inkscape:label="Ebene 1"
     inkscape:groupmode="layer"
     id="layer1">
    <ellipse
       style="fill:none;fill-rule:evenodd;stroke:#84ffe4;stroke-width:14;stroke-linecap:butt;stroke-linejoin:miter;stroke-miterlimit:4;stroke-dasharray:none;stroke-opacity:1;image-rendering:optimizeQuality"
       id="path3336"
       cx="305.84555"
       cy="312.03662"
       rx="187.14285"
       ry="187.85715" />
    <ellipse
       style="fill:none;stroke:#84ffe4;stroke-width:3;stroke-miterlimit:4;stroke-dasharray:none;stroke-opacity:1"
       id="path4261"
       cx="305.06604"
       cy="217.4102"
       rx="51.51778"
       ry="50.507626" />
    <path
       style="fill:none;fill-rule:evenodd;stroke:#84ffe4;stroke-width:3;stroke-linecap:butt;stroke-linejoin:miter;stroke-miterlimit:4;stroke-dasharray:none;stroke-opacity:1"
       d="m 268.1955,262.86709 c 0,0 4.54569,26.76905 36.87057,26.26397 32.32488,-0.50508 35.86041,-25.75889 35.86041,-25.75889"
       id="path4277"
       inkscape:connector-curvature="0" />
    <path
       style="fill:none;fill-rule:evenodd;stroke:#84ffe4;stroke-width:3;stroke-linecap:butt;stroke-linejoin:miter;stroke-miterlimit:4;stroke-dasharray:none;stroke-opacity:1"
       d="m 269.18534,264.38231 -26.76904,0 c 0,0 -7.57614,-3.03045 -13.63706,7.57615 -6.06091,10.6066 -1.51523,139.90612 -1.51523,139.90612 0,0 -2.0203,9.59645 9.09138,9.59645 11.11167,0 15.15228,0 15.15228,-7.07106 0,-7.07107 0.50508,-101.01526 0.50508,-101.01526"
       id="path4285"
       inkscape:connector-curvature="0" />
    <path
       style="fill:none;fill-rule:evenodd;stroke:#84ffe4;stroke-width:3;stroke-linecap:butt;stroke-linejoin:miter;stroke-miterlimit:4;stroke-dasharray:none;stroke-opacity:1"
       d="m 339.62602,263.82358 26.76904,0 c 0,0 7.57614,-3.03045 13.63706,7.57615 6.06091,10.6066 1.51523,139.90612 1.51523,139.90612 0,0 2.0203,9.59645 -9.09138,9.59645 -11.11167,0 -15.15228,0 -15.15228,-7.07106 0,-7.07107 -0.50508,-101.01526 -0.50508,-101.01526"
       id="path4285-7"
       inkscape:connector-curvature="0" />
    <path
       style="fill:none;fill-rule:evenodd;stroke:#84ffe4;stroke-width:3;stroke-linecap:butt;stroke-linejoin:miter;stroke-miterlimit:4;stroke-dasharray:none;stroke-opacity:1"
       d="m 252.51784,314.36456 9.09137,-0.50508 0.50508,119.70308"
       id="path4302"
       inkscape:connector-curvature="0" />
    <path
       style="fill:none;fill-rule:evenodd;stroke:#84ffe4;stroke-width:3;stroke-linecap:butt;stroke-linejoin:miter;stroke-miterlimit:4;stroke-dasharray:none;stroke-opacity:1"
       d="m 357.54477,314.41673 -9.09137,-0.50508 -0.50508,119.70309"
       id="path4302-0"
       inkscape:connector-curvature="0" />
    <path
       style="fill:none;fill-rule:evenodd;stroke:#84ffe4;stroke-width:3;stroke-linecap:butt;stroke-linejoin:miter;stroke-miterlimit:4;stroke-dasharray:none;stroke-opacity:1"
       d="m 261.62951,432.57272 85.86297,-0.50508"
       id="path4319"
       inkscape:connector-curvature="0" />
    <path
       style="fill:#84ffe4;fill-opacity:1;stroke:#84ffe4;stroke-width:1.51522887;stroke-miterlimit:4;stroke-dasharray:none;stroke-opacity:1"
       d="m 263.704,392.58752 c 10e-6,-20.99719 -0.14939,-47.7031 -0.33202,-59.34647 l -0.33204,-21.16976 -4.84499,0.31155 c -2.66474,0.17135 -5.58366,0.48387 -6.48649,0.69448 l -1.64149,0.38293 -0.0576,45.52 c -0.0317,25.036 -0.20214,48.45126 -0.37881,52.0339 -0.42423,8.60261 -0.29083,8.48624 -9.82961,8.57492 -6.18867,0.0575 -6.95991,-0.0351 -8.25546,-0.9921 -0.78598,-0.58057 -1.68483,-1.60335 -1.99744,-2.27285 -1.34469,-2.87983 -2.70841,-94.67179 -1.75954,-118.43464 0.81992,-20.53364 1.48597,-24.40317 4.8985,-28.45873 2.79878,-3.32616 3.34933,-3.41479 19.71927,-3.17456 l 14.71371,0.21594 2.30145,4.63605 c 6.48546,13.0643 18.22375,19.58218 35.17266,19.53019 17.32905,-0.0532 29.37368,-6.74908 35.63251,-19.80906 0.97032,-2.02472 1.76422,-4.09503 1.76422,-4.60069 0,-0.87192 0.77984,-0.91177 15.1063,-0.77186 l 15.10631,0.14752 1.94002,1.5633 c 3.52168,2.83785 4.72355,5.09537 5.50786,10.34562 1.90611,12.75977 2.21193,63.70332 0.70319,117.13806 -0.50973,18.05291 -0.68117,20.60391 -1.45957,21.71828 -1.62166,2.3216 -3.28428,2.77191 -9.88827,2.67816 -6.58358,-0.0935 -8.46059,-0.53329 -9.3474,-2.19033 -0.41359,-0.77279 -0.67118,-15.60236 -0.9146,-52.65479 l -0.33886,-51.57901 -5.88856,-0.20002 -5.88856,-0.20001 -0.17236,58.84957 c -0.0948,32.36726 -0.286,58.95968 -0.42489,59.09427 -0.1389,0.13459 -18.7194,0.32393 -41.29001,0.42077 l -41.03748,0.17607 3e-5,-38.1767 z"
       id="path4379"
       inkscape:connector-curvature="0" />
    <path
       style="fill:#84ffe4;fill-opacity:1;stroke:#84ffe4;stroke-width:1.515;stroke-miterlimit:4;stroke-dasharray:none;stroke-opacity:1"
       d="m 294.51368,265.06007 c -11.4669,-2.50092 -22.52185,-9.56178 -29.60552,-18.90924 -3.2381,-4.27292 -7.00022,-12.30266 -8.32762,-17.77417 -1.38536,-5.71042 -1.51061,-15.30717 -0.27208,-20.84646 4.32887,-19.36061 19.29202,-33.79122 39.46791,-38.06324 1.67863,-0.35543 6.07206,-0.62145 9.84899,-0.59635 5.5715,0.037 7.70705,0.27863 11.67679,1.321 19.26135,5.05763 33.20644,19.86126 36.84903,39.11768 0.89632,4.73838 0.33603,16.11004 -1.02508,20.80466 -2.4075,8.30376 -6.44584,15.11931 -12.61209,21.28556 -6.3064,6.30639 -13.98205,10.77767 -22.51428,13.11518 -5.78713,1.58545 -17.473,1.85682 -23.48605,0.54538 z"
       id="path4381"
       inkscape:connector-curvature="0" />
  </g>
</svg>
